<?xml version="1.0" encoding="utf-8"?>
<!-- Generator: Adobe Illustrator 16.0.4, SVG Export Plug-In . SVG Version: 6.00 Build 0)  -->
<!DOCTYPE svg PUBLIC "-//W3C//DTD SVG 1.1//EN" "http://www.w3.org/Graphics/SVG/1.1/DTD/svg11.dtd">
<svg version="1.1" id="Ebene_1" xmlns="http://www.w3.org/2000/svg" xmlns:xlink="http://www.w3.org/1999/xlink" x="0px" y="0px"
	 width="192px" height="100px" viewBox="0 0 192 100" enable-background="new 0 0 192 100" xml:space="preserve">
<g id="x">
	<g>
		<g>
			<g>
				<g>
					<defs>
						<rect id="SVGID_1_" x="3" width="189" height="100"/>
					</defs>
					<clipPath id="SVGID_2_">
						<use xlink:href="#SVGID_1_"  overflow="visible"/>
					</clipPath>
					<g clip-path="url(#SVGID_2_)">
						<rect x="124" y="17" fill="none" width="75.84" height="85.934"/>
						<path fill="#A8A8A8" d="M124,99.939l28.842-42.108l-26.533-40.82h20.465l16.812,26.05l17.4-26.05h18.584l-26.641,39.37
							l28.844,43.561H180.45l-18.154-28.467l-18.853,28.465H124L124,99.939z"/>
					</g>
				</g>
			</g>
		</g>
	</g>
	<g>
		<g>
			<g>
				<g>
					<defs>
						<rect id="SVGID_3_" x="3" width="189" height="100"/>
					</defs>
					<clipPath id="SVGID_4_">
						<use xlink:href="#SVGID_3_"  overflow="visible"/>
					</clipPath>
					<g clip-path="url(#SVGID_4_)">
						<rect x="124" y="17" fill="none" width="75.84" height="85.934"/>
						<path fill="#A8A8A8" d="M124,99.939l28.842-42.108l-26.533-40.82h20.465l16.812,26.05l17.4-26.05h18.584l-26.641,39.37
							l28.844,43.561H180.45l-18.154-28.467l-18.853,28.465H124L124,99.939z"/>
					</g>
				</g>
			</g>
		</g>
	</g>
</g>
</svg>
