<?xml version="1.0" encoding="utf-8"?>
<!-- Generator: Adobe Illustrator 16.0.4, SVG Export Plug-In . SVG Version: 6.00 Build 0)  -->
<!DOCTYPE svg PUBLIC "-//W3C//DTD SVG 1.1//EN" "http://www.w3.org/Graphics/SVG/1.1/DTD/svg11.dtd">
<svg version="1.1" id="Ebene_1" xmlns="http://www.w3.org/2000/svg" xmlns:xlink="http://www.w3.org/1999/xlink" x="0px" y="0px"
	 width="192px" height="100px" viewBox="0 0 192 100" enable-background="new 0 0 192 100" xml:space="preserve">
<g id="_x36_">
	<g>
		<g>
			<g>
				<g>
					<defs>
						<rect id="SVGID_1_" x="3" width="189" height="100"/>
					</defs>
					<clipPath id="SVGID_2_">
						<use xlink:href="#SVGID_1_"  overflow="visible"/>
					</clipPath>
					<g clip-path="url(#SVGID_2_)">
						<rect x="129" y="17" fill="none" width="75.842" height="85.932"/>
						<path fill="#A8A8A8" d="M192.755,34.144l-15.63,4.082c-1.54-5.872-5.282-8.809-11.227-8.809
							c-4.439,0-7.877,2.041-10.312,6.123c-2.578,4.404-4.047,10.546-4.402,18.423c4.366-5.191,10.545-7.788,18.528-7.788
							c7.593,0,13.479,2.221,17.671,6.66c4.619,4.906,6.93,11.478,6.93,19.712c0,8.916-2.578,15.988-7.732,21.217
							c-5.371,5.442-12.678,8.163-21.914,8.163c-8.415,0-15.254-2.237-20.52-6.715c-3.65-3.114-6.393-7.25-8.217-12.405
							c-1.936-5.336-2.9-12.229-2.9-20.68c0-16.614,3.546-28.717,10.636-36.309c5.515-5.872,13.284-8.809,23.312-8.809
							C181.225,17.01,189.818,22.722,192.755,34.144z M163.857,58.045c-4.117,0-7.412,1.469-9.883,4.404
							c-2.398,2.9-3.601,6.785-3.601,11.654c0,4.834,1.199,8.703,3.601,11.603c2.436,2.899,5.766,4.351,9.988,4.351
							c4.012,0,7.271-1.343,9.773-4.027c2.613-2.826,3.923-6.894,3.923-12.191c0-5.404-1.521-9.542-4.563-12.404
							C170.697,59.173,167.618,58.045,163.857,58.045z"/>
					</g>
				</g>
			</g>
		</g>
	</g>
</g>
</svg>
