<?xml version="1.0" encoding="utf-8"?>
<!-- Generator: Adobe Illustrator 16.0.4, SVG Export Plug-In . SVG Version: 6.00 Build 0)  -->
<!DOCTYPE svg PUBLIC "-//W3C//DTD SVG 1.1//EN" "http://www.w3.org/Graphics/SVG/1.1/DTD/svg11.dtd">
<svg version="1.1" id="Ebene_1" xmlns="http://www.w3.org/2000/svg" xmlns:xlink="http://www.w3.org/1999/xlink" x="0px" y="0px"
	 width="192px" height="100px" viewBox="0 0 192 100" enable-background="new 0 0 192 100" xml:space="preserve">
<g id="_x35_">
	<g>
		<g>
			<g>
				<g>
					<defs>
						<rect id="SVGID_1_" x="3" width="189" height="100"/>
					</defs>
					<clipPath id="SVGID_2_">
						<use xlink:href="#SVGID_1_"  overflow="visible"/>
					</clipPath>
					<g clip-path="url(#SVGID_2_)">
						<rect x="130" y="16" fill="none" width="76" height="86.111"/>
						<path fill="#A8A8A8" d="M134.844,79.251l15.447-4.144c1.723,8.646,6.172,12.971,13.348,12.971
							c9.078,0,13.617-5.489,13.617-16.469c0-4.7-1.166-8.414-3.498-11.145c-2.334-2.763-5.76-4.145-10.281-4.145
							c-3.623,0-6.727,1.111-9.311,3.338c-1.508,1.292-2.656,2.869-3.445,4.734l-13.132-2.1l8.181-44.296h46.072v13.294h-34.984
							l-3.28,18.569c4.055-3.552,9.397-5.329,16.036-5.329c7.431,0,13.365,2.171,17.814,6.513
							c4.629,4.485,6.943,11.249,6.943,20.292c0,9.078-2.457,16.236-7.373,21.477c-5.203,5.524-12.451,8.287-21.744,8.287
							c-11.375,0-19.538-3.103-24.49-9.312C137.785,88.023,135.812,83.846,134.844,79.251z"/>
					</g>
				</g>
			</g>
		</g>
	</g>
</g>
</svg>
