<?xml version="1.0" encoding="utf-8"?>
<!-- Generator: Adobe Illustrator 16.0.4, SVG Export Plug-In . SVG Version: 6.00 Build 0)  -->
<!DOCTYPE svg PUBLIC "-//W3C//DTD SVG 1.1//EN" "http://www.w3.org/Graphics/SVG/1.1/DTD/svg11.dtd">
<svg version="1.1" id="Ebene_1" xmlns="http://www.w3.org/2000/svg" xmlns:xlink="http://www.w3.org/1999/xlink" x="0px" y="0px"
	 width="192px" height="100px" viewBox="0 0 192 100" enable-background="new 0 0 192 100" xml:space="preserve">
<g id="_x33_">
	<g>
		<g>
			<g>
				<g>
					<defs>
						<rect id="SVGID_1_" x="3" width="189" height="100"/>
					</defs>
					<clipPath id="SVGID_2_">
						<use xlink:href="#SVGID_1_"  overflow="visible"/>
					</clipPath>
					<g clip-path="url(#SVGID_2_)">
						<rect x="128" y="17" fill="none" width="75.842" height="85.934"/>
						<path fill="#A8A8A8" d="M131.707,74.75l16.543-1.986c0.357,10.707,5.049,16.062,14.072,16.062c4.152,0,7.43-1.005,9.828-3.011
							c2.396-1.969,3.6-4.852,3.6-8.646c0-4.903-2.096-8.31-6.285-10.205c-2.543-1.146-6.32-1.771-11.332-1.88v-13.32
							c11.279-0.285,16.918-4.208,16.918-11.764c0-2.9-0.842-5.245-2.523-7.036c-2.11-2.22-5.28-3.33-9.508-3.33
							c-5.908,0-9.955,2.328-12.139,6.982c-0.859,1.862-1.414,4.047-1.664,6.553l-16.06-2.095
							c2.506-16.041,12.782-24.062,30.829-24.062c6.519,0,12.175,1.128,16.974,3.384c4.369,2.077,7.412,4.978,9.131,8.701
							c1.505,3.295,2.257,6.786,2.257,10.474c0,6.052-2.396,10.958-7.197,14.717c-2.221,1.719-4.924,3.149-8.107,4.297
							c10.92,1.72,16.381,7.968,16.381,18.745c0,4.729-0.982,8.719-2.951,11.979c-5.088,8.416-14.396,12.623-27.932,12.623
							c-10.352,0-18.189-2.723-23.523-8.164C134.249,88.93,131.814,82.592,131.707,74.75z"/>
					</g>
				</g>
			</g>
		</g>
	</g>
</g>
</svg>
