<?xml version="1.0" encoding="utf-8"?>
<!-- Generator: Adobe Illustrator 16.0.4, SVG Export Plug-In . SVG Version: 6.00 Build 0)  -->
<!DOCTYPE svg PUBLIC "-//W3C//DTD SVG 1.1//EN" "http://www.w3.org/Graphics/SVG/1.1/DTD/svg11.dtd">
<svg version="1.1" id="Ebene_1" xmlns="http://www.w3.org/2000/svg" xmlns:xlink="http://www.w3.org/1999/xlink" x="0px" y="0px"
	 width="192px" height="100px" viewBox="0 0 192 100" enable-background="new 0 0 192 100" xml:space="preserve">
<g id="_x32_">
	<g>
		<g>
			<g>
				<g>
					<defs>
						<rect id="SVGID_1_" x="3" width="189" height="100"/>
					</defs>
					<clipPath id="SVGID_2_">
						<use xlink:href="#SVGID_1_"  overflow="visible"/>
					</clipPath>
					<g clip-path="url(#SVGID_2_)">
						<g>
							<path fill="#A8A8A8" d="M136.264,99.939v-5.961c0-7.521,3.17-14.433,9.508-20.733c2.147-2.147,4.403-4.063,6.77-5.747
								c0.32-0.25,2.611-1.809,6.875-4.673c4.979-3.33,8.665-6.142,11.062-8.433c4.263-4.083,6.394-8.31,6.394-12.679
								c0-3.76-1.021-6.678-3.062-8.755c-1.972-2.005-4.801-3.008-8.485-3.008c-4.513,0-7.914,1.684-10.205,5.049
								c-1.72,2.471-2.793,6.23-3.224,11.279l-16.49-2.095c1.184-8.021,3.707-14.197,7.574-18.53
								c5.154-5.765,12.836-8.647,23.041-8.647c9.774,0,17.1,2.453,21.969,7.358c4.477,4.512,6.715,10.402,6.715,17.671
								c0,6.625-2.258,12.604-6.77,17.938c-2.506,2.975-5.817,5.928-9.938,8.861c-2.328,1.646-4.889,3.402-7.682,5.266
								c-5.406,3.65-8.756,6.067-10.045,7.25c-1.434,1.325-2.648,2.938-3.65,4.834h38.188v13.75h-58.545V99.939L136.264,99.939z"/>
						</g>
					</g>
				</g>
			</g>
		</g>
	</g>
</g>
</svg>
